{
  "accessors": [
    {
      "bufferView": 1,
      "componentType": 5126,
      "count": 3370,
      "max": [
        14.598154067993164,
        14.175494194030762,
        -32.40740203857422
      ],
      "min": [
        -14.59839153289795,
        -10.25381088256836,
        -41.86122512817383
      ],
      "type": "VEC3"
    },
    {
      "bufferView": 1,
      "byteOffset": 40440,
      "componentType": 5126,
      "count": 3370,
      "max": [
        0.9999744892120361,
        0.9996967315673828,
        0.9997626543045044
      ],
      "min": [
        -0.9999663829803467,
        -0.9997262358665466,
        -0.9995561242103577
      ],
      "type": "VEC3"
    },
    {
      "bufferView": 2,
      "componentType": 5126,
      "count": 3370,
      "max": [
        0.13725490868091583,
        0.12941177189350128,
        0.125490203499794,
        1.0
      ],
      "min": [
        0.04313725605607033,
        0.03529411926865578,
        0.0784313753247261,
        1.0
      ],
      "type": "VEC4"
    },
    {
      "bufferView": 0,
      "componentType": 5125,
      "count": 13926,
      "type": "SCALAR"
    },
    {
      "bufferView": 1,
      "byteOffset": 80880,
      "componentType": 5126,
      "count": 4484,
      "max": [
        4.010772705078125,
        -3.678873300552368,
        14.59680461883545
      ],
      "min": [
        -4.010773658752441,
        -6.225705623626709,
        12.050771713256836
      ],
      "type": "VEC3"
    },
    {
      "bufferView": 1,
      "byteOffset": 134688,
      "componentType": 5126,
      "count": 4484,
      "max": [
        0.9999040961265564,
        0.9995651245117188,
        0.9993852376937866
      ],
      "min": [
        -0.9999039769172668,
        -0.9994994401931763,
        -0.9988217949867249
      ],
      "type": "VEC3"
    },
    {
      "bufferView": 2,
      "byteOffset": 53920,
      "componentType": 5126,
      "count": 4484,
      "max": [
        0.929411768913269,
        0.929411768913269,
        0.929411768913269,
        1.0
      ],
      "min": [
        0.08235294371843338,
        0.08235294371843338,
        0.08235294371843338,
        1.0
      ],
      "type": "VEC4"
    },
    {
      "bufferView": 0,
      "byteOffset": 55704,
      "componentType": 5125,
      "count": 26880,
      "type": "SCALAR"
    },
    {
      "bufferView": 1,
      "byteOffset": 188496,
      "componentType": 5126,
      "count": 7141,
      "max": [
        17.151962280273438,
        7.093036651611328,
        -32.0201301574707
      ],
      "min": [
        -17.042295455932617,
        -9.177241325378418,
        -42.67124557495117
      ],
      "type": "VEC3"
    },
    {
      "bufferView": 1,
      "byteOffset": 274188,
      "componentType": 5126,
      "count": 7141,
      "max": [
        0.9999797940254211,
        0.9999954700469971,
        1.0
      ],
      "min": [
        -0.9999963045120239,
        -0.999995231628418,
        -1.0
      ],
      "type": "VEC3"
    },
    {
      "bufferView": 2,
      "byteOffset": 125664,
      "componentType": 5126,
      "count": 7141,
      "max": [
        0.24313725531101227,
        0.22745098173618317,
        0.19607843458652496,
        1.0
      ],
      "min": [
        0.14509804546833038,
        0.13333334028720856,
        0.10196078568696976,
        1.0
      ],
      "type": "VEC4"
    },
    {
      "bufferView": 0,
      "byteOffset": 163224,
      "componentType": 5125,
      "count": 38772,
      "type": "SCALAR"
    },
    {
      "bufferView": 1,
      "byteOffset": 359880,
      "componentType": 5126,
      "count": 13420,
      "max": [
        33.97512435913086,
        21.258241653442383,
        -1.260043978691101
      ],
      "min": [
        -33.975040435791016,
        -9.50534725189209,
        -98.7514877319336
      ],
      "type": "VEC3"
    },
    {
      "bufferView": 1,
      "byteOffset": 520920,
      "componentType": 5126,
      "count": 13420,
      "max": [
        0.999971866607666,
        0.9997668862342834,
        0.9994301199913025
      ],
      "min": [
        -0.9999901652336121,
        -0.9999452233314514,
        -0.999535083770752
      ],
      "type": "VEC3"
    },
    {
      "bufferView": 2,
      "byteOffset": 239920,
      "componentType": 5126,
      "count": 13420,
      "max": [
        0.12156862765550613,
        0.12156862765550613,
        0.12156862765550613,
        1.0
      ],
      "min": [
        0.10196078568696976,
        0.10196078568696976,
        0.10196078568696976,
        1.0
      ],
      "type": "VEC4"
    },
    {
      "bufferView": 0,
      "byteOffset": 318312,
      "componentType": 5125,
      "count": 53040,
      "type": "SCALAR"
    },
    {
      "bufferView": 1,
      "byteOffset": 681960,
      "componentType": 5126,
      "count": 19769,
      "max": [
        16.07701301574707,
        1.584702968597412,
        -1.6079190969467163
      ],
      "min": [
        -16.07813835144043,
        -9.755516052246094,
        -16.282060623168945
      ],
      "type": "VEC3"
    },
    {
      "bufferView": 1,
      "byteOffset": 919188,
      "componentType": 5126,
      "count": 19769,
      "max": [
        0.9999806880950928,
        0.9999555349349976,
        0.9998372793197632
      ],
      "min": [
        -0.9999813437461853,
        -0.9999859929084778,
        -0.9992831945419312
      ],
      "type": "VEC3"
    },
    {
      "bufferView": 2,
      "byteOffset": 454640,
      "componentType": 5126,
      "count": 19769,
      "max": [
        0.18039216101169586,
        0.18039216101169586,
        0.18039216101169586,
        1.0
      ],
      "min": [
        0.08627451211214066,
        0.08627451211214066,
        0.08627451211214066,
        1.0
      ],
      "type": "VEC4"
    },
    {
      "bufferView": 0,
      "byteOffset": 530472,
      "componentType": 5125,
      "count": 56934,
      "type": "SCALAR"
    },
    {
      "bufferView": 1,
      "byteOffset": 1156416,
      "componentType": 5126,
      "count": 17740,
      "max": [
        5.6431732177734375,
        0.3056824505329132,
        15.574949264526367
      ],
      "min": [
        -5.643703460693359,
        -8.386886596679688,
        3.8007349967956543
      ],
      "type": "VEC3"
    },
    {
      "bufferView": 1,
      "byteOffset": 1369296,
      "componentType": 5126,
      "count": 17740,
      "max": [
        0.9999863505363464,
        0.7342997789382935,
        0.9672423601150513
      ],
      "min": [
        -0.9999774694442749,
        -0.9999957084655762,
        -0.9999694228172302
      ],
      "type": "VEC3"
    },
    {
      "bufferView": 2,
      "byteOffset": 770944,
      "componentType": 5126,
      "count": 17740,
      "max": [
        0.8352941274642944,
        0.6000000238418579,
        0.5137255191802979,
        1.0
      ],
      "min": [
        0.054901961237192154,
        0.054901961237192154,
        0.054901961237192154,
        1.0
      ],
      "type": "VEC4"
    },
    {
      "bufferView": 0,
      "byteOffset": 758208,
      "componentType": 5125,
      "count": 94752,
      "type": "SCALAR"
    },
    {
      "bufferView": 1,
      "byteOffset": 1582176,
      "componentType": 5126,
      "count": 28172,
      "max": [
        51.04869842529297,
        63.913246154785156,
        27.443199157714844
      ],
      "min": [
        -51.047813415527344,
        -8.55230712890625,
        -139.98802185058594
      ],
      "type": "VEC3"
    },
    {
      "bufferView": 1,
      "byteOffset": 1920240,
      "componentType": 5126,
      "count": 28172,
      "max": [
        1.0,
        0.9999891519546509,
        0.9999581575393677
      ],
      "min": [
        -1.0,
        -0.9998339414596558,
        -0.9999647736549377
      ],
      "type": "VEC3"
    },
    {
      "bufferView": 2,
      "byteOffset": 1054784,
      "componentType": 5126,
      "count": 28172,
      "max": [
        0.3490196168422699,
        0.3490196168422699,
        0.3490196168422699,
        1.0
      ],
      "min": [
        0.0,
        0.0,
        0.0,
        1.0
      ],
      "type": "VEC4"
    },
    {
      "bufferView": 0,
      "byteOffset": 1137216,
      "componentType": 5125,
      "count": 144534,
      "type": "SCALAR"
    },
    {
      "bufferView": 1,
      "byteOffset": 2258304,
      "componentType": 5126,
      "count": 27912,
      "max": [
        34.37038803100586,
        21.771621704101563,
        0.7650672793388367
      ],
      "min": [
        -34.37039566040039,
        -10.286660194396973,
        -100.0731430053711
      ],
      "type": "VEC3"
    },
    {
      "bufferView": 1,
      "byteOffset": 2593248,
      "componentType": 5126,
      "count": 27912,
      "max": [
        0.9999977350234985,
        0.9999778866767883,
        0.9999610781669617
      ],
      "min": [
        -0.9999955296516418,
        -0.9998616576194763,
        -0.9992035627365112
      ],
      "type": "VEC3"
    },
    {
      "bufferView": 2,
      "byteOffset": 1505536,
      "componentType": 5126,
      "count": 27912,
      "max": [
        0.2666666805744171,
        0.2666666805744171,
        0.2666666805744171,
        1.0
      ],
      "min": [
        0.20000000298023224,
        0.20000000298023224,
        0.20000000298023224,
        1.0
      ],
      "type": "VEC4"
    },
    {
      "bufferView": 0,
      "byteOffset": 1715352,
      "componentType": 5125,
      "count": 151146,
      "type": "SCALAR"
    },
    {
      "bufferView": 1,
      "byteOffset": 2928192,
      "componentType": 5126,
      "count": 55251,
      "max": [
        42.264461517333984,
        22.4125919342041,
        -23.373912811279297
      ],
      "min": [
        -42.27751159667969,
        -2.556929588317871,
        -139.54864501953125
      ],
      "type": "VEC3"
    },
    {
      "bufferView": 1,
      "byteOffset": 3591204,
      "componentType": 5126,
      "count": 55251,
      "max": [
        0.9999740719795227,
        0.9999796748161316,
        0.9999377727508545
      ],
      "min": [
        -0.9999410510063171,
        -0.9998788237571716,
        -0.9999763369560242
      ],
      "type": "VEC3"
    },
    {
      "bufferView": 2,
      "byteOffset": 1952128,
      "componentType": 5126,
      "count": 55251,
      "max": [
        1.0,
        1.0,
        1.0,
        1.0
      ],
      "min": [
        0.05098039284348488,
        0.05098039284348488,
        0.05098039284348488,
        1.0
      ],
      "type": "VEC4"
    },
    {
      "bufferView": 0,
      "byteOffset": 2319936,
      "componentType": 5125,
      "count": 212844,
      "type": "SCALAR"
    },
    {
      "bufferView": 1,
      "byteOffset": 4254216,
      "componentType": 5126,
      "count": 1929,
      "max": [
        28.728984832763672,
        6.872028350830078,
        -3.9176363945007324
      ],
      "min": [
        -28.728984832763672,
        -9.182291030883789,
        -139.59585571289063
      ],
      "type": "VEC3"
    },
    {
      "bufferView": 1,
      "byteOffset": 4277364,
      "componentType": 5126,
      "count": 1929,
      "max": [
        0.9977214932441711,
        0.9745450019836426,
        0.9831613898277283
      ],
      "min": [
        -0.9977766275405884,
        -0.9912305474281311,
        -0.9975622892379761
      ],
      "type": "VEC3"
    },
    {
      "bufferView": 2,
      "byteOffset": 2836144,
      "componentType": 5126,
      "count": 1929,
      "max": [
        0.1725490242242813,
        0.1725490242242813,
        0.1725490242242813,
        1.0
      ],
      "min": [
        0.13725490868091583,
        0.13725490868091583,
        0.13725490868091583,
        1.0
      ],
      "type": "VEC4"
    },
    {
      "bufferView": 0,
      "byteOffset": 3171312,
      "componentType": 5125,
      "count": 10416,
      "type": "SCALAR"
    }
  ],
  "asset": {
    "extras": {
      "author": "CG Makers (https://sketchfab.com/cloud.cgmakers)",
      "license": "SKETCHFAB Editorial (https://sketchfab.com/licenses)",
      "source": "https://sketchfab.com/3d-models/batman-cg-pyro-8d0b3aa9152f40f0a9cc98f12d466dc1",
      "title": "Batman | CG Pyro"
    },
    "generator": "Sketchfab-12.65.0",
    "version": "2.0"
  },
  "bufferViews": [
    {
      "buffer": 0,
      "byteLength": 3212976,
      "name": "floatBufferViews",
      "target": 34963
    },
    {
      "buffer": 0,
      "byteLength": 4300512,
      "byteOffset": 3212976,
      "byteStride": 12,
      "name": "floatBufferViews",
      "target": 34962
    },
    {
      "buffer": 0,
      "byteLength": 2867008,
      "byteOffset": 7513488,
      "byteStride": 16,
      "name": "floatBufferViews",
      "target": 34962
    }
  ],
  "buffers": [
    {
      "byteLength": 10380496,
      "uri": "scene.bin"
    }
  ],
  "extensionsUsed": [
    "KHR_materials_clearcoat"
  ],
  "materials": [
    {
      "doubleSided": true,
      "extensions": {
        "KHR_materials_clearcoat": {
          "clearcoatFactor": 0.26391006097560976,
          "clearcoatRoughnessFactor": 0.28220274390243905
        }
      },
      "name": "material_0",
      "pbrMetallicRoughness": {
        "metallicFactor": 0.0,
        "roughnessFactor": 0.6
      }
    }
  ],
  "meshes": [
    {
      "name": "Object_0",
      "primitives": [
        {
          "attributes": {
            "COLOR_0": 2,
            "NORMAL": 1,
            "POSITION": 0
          },
          "indices": 3,
          "material": 0,
          "mode": 4
        }
      ]
    },
    {
      "name": "Object_1",
      "primitives": [
        {
          "attributes": {
            "COLOR_0": 6,
            "NORMAL": 5,
            "POSITION": 4
          },
          "indices": 7,
          "material": 0,
          "mode": 4
        }
      ]
    },
    {
      "name": "Object_2",
      "primitives": [
        {
          "attributes": {
            "COLOR_0": 10,
            "NORMAL": 9,
            "POSITION": 8
          },
          "indices": 11,
          "material": 0,
          "mode": 4
        }
      ]
    },
    {
      "name": "Object_3",
      "primitives": [
        {
          "attributes": {
            "COLOR_0": 14,
            "NORMAL": 13,
            "POSITION": 12
          },
          "indices": 15,
          "material": 0,
          "mode": 4
        }
      ]
    },
    {
      "name": "Object_4",
      "primitives": [
        {
          "attributes": {
            "COLOR_0": 18,
            "NORMAL": 17,
            "POSITION": 16
          },
          "indices": 19,
          "material": 0,
          "mode": 4
        }
      ]
    },
    {
      "name": "Object_5",
      "primitives": [
        {
          "attributes": {
            "COLOR_0": 22,
            "NORMAL": 21,
            "POSITION": 20
          },
          "indices": 23,
          "material": 0,
          "mode": 4
        }
      ]
    },
    {
      "name": "Object_6",
      "primitives": [
        {
          "attributes": {
            "COLOR_0": 26,
            "NORMAL": 25,
            "POSITION": 24
          },
          "indices": 27,
          "material": 0,
          "mode": 4
        }
      ]
    },
    {
      "name": "Object_7",
      "primitives": [
        {
          "attributes": {
            "COLOR_0": 30,
            "NORMAL": 29,
            "POSITION": 28
          },
          "indices": 31,
          "material": 0,
          "mode": 4
        }
      ]
    },
    {
      "name": "Object_8",
      "primitives": [
        {
          "attributes": {
            "COLOR_0": 34,
            "NORMAL": 33,
            "POSITION": 32
          },
          "indices": 35,
          "material": 0,
          "mode": 4
        }
      ]
    },
    {
      "name": "Object_9",
      "primitives": [
        {
          "attributes": {
            "COLOR_0": 38,
            "NORMAL": 37,
            "POSITION": 36
          },
          "indices": 39,
          "material": 0,
          "mode": 4
        }
      ]
    }
  ],
  "nodes": [
    {
      "children": [
        1
      ],
      "matrix": [
        1.0,
        0.0,
        0.0,
        0.0,
        0.0,
        2.220446049250313e-16,
        -1.0,
        0.0,
        0.0,
        1.0,
        2.220446049250313e-16,
        0.0,
        0.0,
        0.0,
        0.0,
        1.0
      ],
      "name": "Sketchfab_model"
    },
    {
      "children": [
        2,
        3,
        4,
        5,
        6,
        7,
        8,
        9,
        10,
        11
      ],
      "name": "Bat stand SkFb 01.OBJ.cleaner.materialmerger.gles"
    },
    {
      "mesh": 0,
      "name": "Object_2"
    },
    {
      "mesh": 1,
      "name": "Object_3"
    },
    {
      "mesh": 2,
      "name": "Object_4"
    },
    {
      "mesh": 3,
      "name": "Object_5"
    },
    {
      "mesh": 4,
      "name": "Object_6"
    },
    {
      "mesh": 5,
      "name": "Object_7"
    },
    {
      "mesh": 6,
      "name": "Object_8"
    },
    {
      "mesh": 7,
      "name": "Object_9"
    },
    {
      "mesh": 8,
      "name": "Object_10"
    },
    {
      "mesh": 9,
      "name": "Object_11"
    }
  ],
  "scene": 0,
  "scenes": [
    {
      "name": "Sketchfab_Scene",
      "nodes": [
        0
      ]
    }
  ]
}
